<svg xmlns="http://www.w3.org/2000/svg" width="290" height="290"><rect width="290" height="290" fill="#FFF"/><defs><linearGradient id="grad" x1="0" y1="116" x2="0" y2="290" gradientUnits="userSpaceOnUse"><stop offset="0%" stop-color="#606090"/><stop offset="100%" stop-color="#FF0000"/></linearGradient></defs><rect x="40" y="40" width="10" height="10" rx="3" ry="3" fill="url(#grad)"/><rect x="47" y="40" width="6" height="10" fill="url(#grad)"/><rect x="40" y="47" width="10" height="6" fill="url(#grad)"/><rect x="50" y="40" width="10" height="10" rx="3" ry="3" fill="url(#grad)"/><rect x="57" y="40" width="6" height="10" fill="url(#grad)"/><rect x="47" y="40" width="6" height="10" fill="url(#grad)"/><rect x="60" y="40" width="10" height="10" rx="3" ry="3" fill="url(#grad)"/><rect x="67" y="40" width="6" height="10" fill="url(#grad)"/><rect x="57" y="40" width="6" height="10" fill="url(#grad)"/><rect x="70" y="40" width="10" height="10" rx="3" ry="3" fill="url(#grad)"/><rect x="77" y="40" width="6" height="10" fill="url(#grad)"/><rect x="67" y="40" width="6" height="10" fill="url(#grad)"/><rect x="80" y="40" width="10" height="10" rx="3" ry="3" fill="url(#grad)"/><rect x="87" y="40" width="6" height="10" fill="url(#grad)"/><rect x="77" y="40" width="6" height="10" fill="url(#grad)"/><rect x="90" y="40" width="10" height="10" rx="3" ry="3" fill="url(#grad)"/><rect x="97" y="40" width="6" height="10" fill="url(#grad)"/><rect x="87" y="40" width="6" height="10" fill="url(#grad)"/><rect x="100" y="40" width="10" height="10" rx="3" ry="3" fill="url(#grad)"/><rect x="100" y="47" width="10" height="6" fill="url(#grad)"/><rect x="97" y="40" width="6" height="10" fill="url(#grad)"/><rect x="120" y="40" width="10" height="10" rx="3" ry="3" fill="url(#grad)"/><rect x="120" y="47" width="10" height="6" fill="url(#grad)"/><rect x="140" y="40" width="10" height="10" rx="3" ry="3" fill="url(#grad)"/><rect x="140" y="47" width="10" height="6" fill="url(#grad)"/><rect x="180" y="40" width="10" height="10" rx="3" ry="3" fill="url(#grad)"/><rect x="187" y="40" width="6" height="10" fill="url(#grad)"/><rect x="180" y="47" width="10" height="6" fill="url(#grad)"/><rect x="190" y="40" width="10" height="10" rx="3" ry="3" fill="url(#grad)"/><rect x="197" y="40" width="6" height="10" fill="url(#grad)"/><rect x="187" y="40" width="6" height="10" fill="url(#grad)"/><rect x="200" y="40" width="10" height="10" rx="3" ry="3" fill="url(#grad)"/><rect x="207" y="40" width="6" height="10" fill="url(#grad)"/><rect x="197" y="40" width="6" height="10" fill="url(#grad)"/><rect x="210" y="40" width="10" height="10" rx="3" ry="3" fill="url(#grad)"/><rect x="217" y="40" width="6" height="10" fill="url(#grad)"/><rect x="207" y="40" width="6" height="10" fill="url(#grad)"/><rect x="220" y="40" width="10" height="10" rx="3" ry="3" fill="url(#grad)"/><rect x="227" y="40" width="6" height="10" fill="url(#grad)"/><rect x="217" y="40" width="6" height="10" fill="url(#grad)"/><rect x="230" y="40" width="10" height="10" rx="3" ry="3" fill="url(#grad)"/><rect x="237" y="40" width="6" height="10" fill="url(#grad)"/><rect x="227" y="40" width="6" height="10" fill="url(#grad)"/><rect x="240" y="40" width="10" height="10" rx="3" ry="3" fill="url(#grad)"/><rect x="240" y="47" width="10" height="6" fill="url(#grad)"/><rect x="237" y="40" width="6" height="10" fill="url(#grad)"/><rect x="40" y="50" width="10" height="10" rx="3" ry="3" fill="url(#grad)"/><rect x="40" y="57" width="10" height="6" fill="url(#grad)"/><rect x="40" y="47" width="10" height="6" fill="url(#grad)"/><rect x="100" y="50" width="10" height="10" rx="3" ry="3" fill="url(#grad)"/><rect x="100" y="57" width="10" height="6" fill="url(#grad)"/><rect x="100" y="47" width="10" height="6" fill="url(#grad)"/><rect x="120" y="50" width="10" height="10" rx="3" ry="3" fill="url(#grad)"/><rect x="127" y="50" width="6" height="10" fill="url(#grad)"/><rect x="120" y="57" width="10" height="6" fill="url(#grad)"/><rect x="120" y="47" width="10" height="6" fill="url(#grad)"/><rect x="130" y="50" width="10" height="10" rx="3" ry="3" fill="url(#grad)"/><rect x="137" y="50" width="6" height="10" fill="url(#grad)"/><rect x="127" y="50" width="6" height="10" fill="url(#grad)"/><rect x="140" y="50" width="10" height="10" rx="3" ry="3" fill="url(#grad)"/><rect x="147" y="50" width="6" height="10" fill="url(#grad)"/><rect x="137" y="50" width="6" height="10" fill="url(#grad)"/><rect x="140" y="47" width="10" height="6" fill="url(#grad)"/><rect x="150" y="50" width="10" height="10" rx="3" ry="3" fill="url(#grad)"/><rect x="157" y="50" width="6" height="10" fill="url(#grad)"/><rect x="150" y="57" width="10" height="6" fill="url(#grad)"/><rect x="147" y="50" width="6" height="10" fill="url(#grad)"/><rect x="160" y="50" width="10" height="10" rx="3" ry="3" fill="url(#grad)"/><rect x="160" y="57" width="10" height="6" fill="url(#grad)"/><rect x="157" y="50" width="6" height="10" fill="url(#grad)"/><rect x="180" y="50" width="10" height="10" rx="3" ry="3" fill="url(#grad)"/><rect x="180" y="57" width="10" height="6" fill="url(#grad)"/><rect x="180" y="47" width="10" height="6" fill="url(#grad)"/><rect x="240" y="50" width="10" height="10" rx="3" ry="3" fill="url(#grad)"/><rect x="240" y="57" width="10" height="6" fill="url(#grad)"/><rect x="240" y="47" width="10" height="6" fill="url(#grad)"/><rect x="40" y="60" width="10" height="10" rx="3" ry="3" fill="url(#grad)"/><rect x="40" y="67" width="10" height="6" fill="url(#grad)"/><rect x="40" y="57" width="10" height="6" fill="url(#grad)"/><rect x="60" y="60" width="10" height="10" rx="3" ry="3" fill="url(#grad)"/><rect x="67" y="60" width="6" height="10" fill="url(#grad)"/><rect x="60" y="67" width="10" height="6" fill="url(#grad)"/><rect x="70" y="60" width="10" height="10" rx="3" ry="3" fill="url(#grad)"/><rect x="77" y="60" width="6" height="10" fill="url(#grad)"/><rect x="70" y="67" width="10" height="6" fill="url(#grad)"/><rect x="67" y="60" width="6" height="10" fill="url(#grad)"/><rect x="80" y="60" width="10" height="10" rx="3" ry="3" fill="url(#grad)"/><rect x="80" y="67" width="10" height="6" fill="url(#grad)"/><rect x="77" y="60" width="6" height="10" fill="url(#grad)"/><rect x="100" y="60" width="10" height="10" rx="3" ry="3" fill="url(#grad)"/><rect x="100" y="67" width="10" height="6" fill="url(#grad)"/><rect x="100" y="57" width="10" height="6" fill="url(#grad)"/><rect x="120" y="60" width="10" height="10" rx="3" ry="3" fill="url(#grad)"/><rect x="120" y="57" width="10" height="6" fill="url(#grad)"/><rect x="150" y="60" width="10" height="10" rx="3" ry="3" fill="url(#grad)"/><rect x="157" y="60" width="6" height="10" fill="url(#grad)"/><rect x="150" y="67" width="10" height="6" fill="url(#grad)"/><rect x="150" y="57" width="10" height="6" fill="url(#grad)"/><rect x="160" y="60" width="10" height="10" rx="3" ry="3" fill="url(#grad)"/><rect x="160" y="67" width="10" height="6" fill="url(#grad)"/><rect x="157" y="60" width="6" height="10" fill="url(#grad)"/><rect x="160" y="57" width="10" height="6" fill="url(#grad)"/><rect x="180" y="60" width="10" height="10" rx="3" ry="3" fill="url(#grad)"/><rect x="180" y="67" width="10" height="6" fill="url(#grad)"/><rect x="180" y="57" width="10" height="6" fill="url(#grad)"/><rect x="200" y="60" width="10" height="10" rx="3" ry="3" fill="url(#grad)"/><rect x="207" y="60" width="6" height="10" fill="url(#grad)"/><rect x="200" y="67" width="10" height="6" fill="url(#grad)"/><rect x="210" y="60" width="10" height="10" rx="3" ry="3" fill="url(#grad)"/><rect x="217" y="60" width="6" height="10" fill="url(#grad)"/><rect x="210" y="67" width="10" height="6" fill="url(#grad)"/><rect x="207" y="60" width="6" height="10" fill="url(#grad)"/><rect x="220" y="60" width="10" height="10" rx="3" ry="3" fill="url(#grad)"/><rect x="220" y="67" width="10" height="6" fill="url(#grad)"/><rect x="217" y="60" width="6" height="10" fill="url(#grad)"/><rect x="240" y="60" width="10" height="10" rx="3" ry="3" fill="url(#grad)"/><rect x="240" y="67" width="10" height="6" fill="url(#grad)"/><rect x="240" y="57" width="10" height="6" fill="url(#grad)"/><rect x="40" y="70" width="10" height="10" rx="3" ry="3" fill="url(#grad)"/><rect x="40" y="77" width="10" height="6" fill="url(#grad)"/><rect x="40" y="67" width="10" height="6" fill="url(#grad)"/><rect x="60" y="70" width="10" height="10" rx="3" ry="3" fill="url(#grad)"/><rect x="67" y="70" width="6" height="10" fill="url(#grad)"/><rect x="60" y="77" width="10" height="6" fill="url(#grad)"/><rect x="60" y="67" width="10" height="6" fill="url(#grad)"/><rect x="70" y="70" width="10" height="10" rx="3" ry="3" fill="url(#grad)"/><rect x="77" y="70" width="6" height="10" fill="url(#grad)"/><rect x="70" y="77" width="10" height="6" fill="url(#grad)"/><rect x="67" y="70" width="6" height="10" fill="url(#grad)"/><rect x="70" y="67" width="10" height="6" fill="url(#grad)"/><rect x="80" y="70" width="10" height="10" rx="3" ry="3" fill="url(#grad)"/><rect x="80" y="77" width="10" height="6" fill="url(#grad)"/><rect x="77" y="70" width="6" height="10" fill="url(#grad)"/><rect x="80" y="67" width="10" height="6" fill="url(#grad)"/><rect x="100" y="70" width="10" height="10" rx="3" ry="3" fill="url(#grad)"/><rect x="100" y="77" width="10" height="6" fill="url(#grad)"/><rect x="100" y="67" width="10" height="6" fill="url(#grad)"/><rect x="150" y="70" width="10" height="10" rx="3" ry="3" fill="url(#grad)"/><rect x="157" y="70" width="6" height="10" fill="url(#grad)"/><rect x="150" y="67" width="10" height="6" fill="url(#grad)"/><rect x="160" y="70" width="10" height="10" rx="3" ry="3" fill="url(#grad)"/><rect x="157" y="70" width="6" height="10" fill="url(#grad)"/><rect x="160" y="67" width="10" height="6" fill="url(#grad)"/><rect x="180" y="70" width="10" height="10" rx="3" ry="3" fill="url(#grad)"/><rect x="180" y="77" width="10" height="6" fill="url(#grad)"/><rect x="180" y="67" width="10" height="6" fill="url(#grad)"/><rect x="200" y="70" width="10" height="10" rx="3" ry="3" fill="url(#grad)"/><rect x="207" y="70" width="6" height="10" fill="url(#grad)"/><rect x="200" y="77" width="10" height="6" fill="url(#grad)"/><rect x="200" y="67" width="10" height="6" fill="url(#grad)"/><rect x="210" y="70" width="10" height="10" rx="3" ry="3" fill="url(#grad)"/><rect x="217" y="70" width="6" height="10" fill="url(#grad)"/><rect x="210" y="77" width="10" height="6" fill="url(#grad)"/><rect x="207" y="70" width="6" height="10" fill="url(#grad)"/><rect x="210" y="67" width="10" height="6" fill="url(#grad)"/><rect x="220" y="70" width="10" height="10" rx="3" ry="3" fill="url(#grad)"/><rect x="220" y="77" width="10" height="6" fill="url(#grad)"/><rect x="217" y="70" width="6" height="10" fill="url(#grad)"/><rect x="220" y="67" width="10" height="6" fill="url(#grad)"/><rect x="240" y="70" width="10" height="10" rx="3" ry="3" fill="url(#grad)"/><rect x="240" y="77" width="10" height="6" fill="url(#grad)"/><rect x="240" y="67" width="10" height="6" fill="url(#grad)"/><rect x="40" y="80" width="10" height="10" rx="3" ry="3" fill="url(#grad)"/><rect x="40" y="87" width="10" height="6" fill="url(#grad)"/><rect x="40" y="77" width="10" height="6" fill="url(#grad)"/><rect x="60" y="80" width="10" height="10" rx="3" ry="3" fill="url(#grad)"/><rect x="67" y="80" width="6" height="10" fill="url(#grad)"/><rect x="60" y="77" width="10" height="6" fill="url(#grad)"/><rect x="70" y="80" width="10" height="10" rx="3" ry="3" fill="url(#grad)"/><rect x="77" y="80" width="6" height="10" fill="url(#grad)"/><rect x="67" y="80" width="6" height="10" fill="url(#grad)"/><rect x="70" y="77" width="10" height="6" fill="url(#grad)"/><rect x="80" y="80" width="10" height="10" rx="3" ry="3" fill="url(#grad)"/><rect x="77" y="80" width="6" height="10" fill="url(#grad)"/><rect x="80" y="77" width="10" height="6" fill="url(#grad)"/><rect x="100" y="80" width="10" height="10" rx="3" ry="3" fill="url(#grad)"/><rect x="100" y="87" width="10" height="6" fill="url(#grad)"/><rect x="100" y="77" width="10" height="6" fill="url(#grad)"/><rect x="130" y="80" width="10" height="10" rx="3" ry="3" fill="url(#grad)"/><rect x="130" y="87" width="10" height="6" fill="url(#grad)"/><rect x="180" y="80" width="10" height="10" rx="3" ry="3" fill="url(#grad)"/><rect x="180" y="87" width="10" height="6" fill="url(#grad)"/><rect x="180" y="77" width="10" height="6" fill="url(#grad)"/><rect x="200" y="80" width="10" height="10" rx="3" ry="3" fill="url(#grad)"/><rect x="207" y="80" width="6" height="10" fill="url(#grad)"/><rect x="200" y="77" width="10" height="6" fill="url(#grad)"/><rect x="210" y="80" width="10" height="10" rx="3" ry="3" fill="url(#grad)"/><rect x="217" y="80" width="6" height="10" fill="url(#grad)"/><rect x="207" y="80" width="6" height="10" fill="url(#grad)"/><rect x="210" y="77" width="10" height="6" fill="url(#grad)"/><rect x="220" y="80" width="10" height="10" rx="3" ry="3" fill="url(#grad)"/><rect x="217" y="80" width="6" height="10" fill="url(#grad)"/><rect x="220" y="77" width="10" height="6" fill="url(#grad)"/><rect x="240" y="80" width="10" height="10" rx="3" ry="3" fill="url(#grad)"/><rect x="240" y="87" width="10" height="6" fill="url(#grad)"/><rect x="240" y="77" width="10" height="6" fill="url(#grad)"/><rect x="40" y="90" width="10" height="10" rx="3" ry="3" fill="url(#grad)"/><rect x="40" y="97" width="10" height="6" fill="url(#grad)"/><rect x="40" y="87" width="10" height="6" fill="url(#grad)"/><rect x="100" y="90" width="10" height="10" rx="3" ry="3" fill="url(#grad)"/><rect x="100" y="97" width="10" height="6" fill="url(#grad)"/><rect x="100" y="87" width="10" height="6" fill="url(#grad)"/><rect x="120" y="90" width="10" height="10" rx="3" ry="3" fill="url(#grad)"/><rect x="127" y="90" width="6" height="10" fill="url(#grad)"/><rect x="120" y="97" width="10" height="6" fill="url(#grad)"/><rect x="130" y="90" width="10" height="10" rx="3" ry="3" fill="url(#grad)"/><rect x="137" y="90" width="6" height="10" fill="url(#grad)"/><rect x="127" y="90" width="6" height="10" fill="url(#grad)"/><rect x="130" y="87" width="10" height="6" fill="url(#grad)"/><rect x="140" y="90" width="10" height="10" rx="3" ry="3" fill="url(#grad)"/><rect x="140" y="97" width="10" height="6" fill="url(#grad)"/><rect x="137" y="90" width="6" height="10" fill="url(#grad)"/><rect x="180" y="90" width="10" height="10" rx="3" ry="3" fill="url(#grad)"/><rect x="180" y="97" width="10" height="6" fill="url(#grad)"/><rect x="180" y="87" width="10" height="6" fill="url(#grad)"/><rect x="240" y="90" width="10" height="10" rx="3" ry="3" fill="url(#grad)"/><rect x="240" y="97" width="10" height="6" fill="url(#grad)"/><rect x="240" y="87" width="10" height="6" fill="url(#grad)"/><rect x="40" y="100" width="10" height="10" rx="3" ry="3" fill="url(#grad)"/><rect x="47" y="100" width="6" height="10" fill="url(#grad)"/><rect x="40" y="97" width="10" height="6" fill="url(#grad)"/><rect x="50" y="100" width="10" height="10" rx="3" ry="3" fill="url(#grad)"/><rect x="57" y="100" width="6" height="10" fill="url(#grad)"/><rect x="47" y="100" width="6" height="10" fill="url(#grad)"/><rect x="60" y="100" width="10" height="10" rx="3" ry="3" fill="url(#grad)"/><rect x="67" y="100" width="6" height="10" fill="url(#grad)"/><rect x="57" y="100" width="6" height="10" fill="url(#grad)"/><rect x="70" y="100" width="10" height="10" rx="3" ry="3" fill="url(#grad)"/><rect x="77" y="100" width="6" height="10" fill="url(#grad)"/><rect x="67" y="100" width="6" height="10" fill="url(#grad)"/><rect x="80" y="100" width="10" height="10" rx="3" ry="3" fill="url(#grad)"/><rect x="87" y="100" width="6" height="10" fill="url(#grad)"/><rect x="77" y="100" width="6" height="10" fill="url(#grad)"/><rect x="90" y="100" width="10" height="10" rx="3" ry="3" fill="url(#grad)"/><rect x="97" y="100" width="6" height="10" fill="url(#grad)"/><rect x="87" y="100" width="6" height="10" fill="url(#grad)"/><rect x="100" y="100" width="10" height="10" rx="3" ry="3" fill="url(#grad)"/><rect x="97" y="100" width="6" height="10" fill="url(#grad)"/><rect x="100" y="97" width="10" height="6" fill="url(#grad)"/><rect x="120" y="100" width="10" height="10" rx="3" ry="3" fill="url(#grad)"/><rect x="120" y="107" width="10" height="6" fill="url(#grad)"/><rect x="120" y="97" width="10" height="6" fill="url(#grad)"/><rect x="140" y="100" width="10" height="10" rx="3" ry="3" fill="url(#grad)"/><rect x="140" y="107" width="10" height="6" fill="url(#grad)"/><rect x="140" y="97" width="10" height="6" fill="url(#grad)"/><rect x="160" y="100" width="10" height="10" rx="3" ry="3" fill="url(#grad)"/><rect x="160" y="107" width="10" height="6" fill="url(#grad)"/><rect x="180" y="100" width="10" height="10" rx="3" ry="3" fill="url(#grad)"/><rect x="187" y="100" width="6" height="10" fill="url(#grad)"/><rect x="180" y="97" width="10" height="6" fill="url(#grad)"/><rect x="190" y="100" width="10" height="10" rx="3" ry="3" fill="url(#grad)"/><rect x="197" y="100" width="6" height="10" fill="url(#grad)"/><rect x="187" y="100" width="6" height="10" fill="url(#grad)"/><rect x="200" y="100" width="10" height="10" rx="3" ry="3" fill="url(#grad)"/><rect x="207" y="100" width="6" height="10" fill="url(#grad)"/><rect x="197" y="100" width="6" height="10" fill="url(#grad)"/><rect x="210" y="100" width="10" height="10" rx="3" ry="3" fill="url(#grad)"/><rect x="217" y="100" width="6" height="10" fill="url(#grad)"/><rect x="207" y="100" width="6" height="10" fill="url(#grad)"/><rect x="220" y="100" width="10" height="10" rx="3" ry="3" fill="url(#grad)"/><rect x="227" y="100" width="6" height="10" fill="url(#grad)"/><rect x="217" y="100" width="6" height="10" fill="url(#grad)"/><rect x="230" y="100" width="10" height="10" rx="3" ry="3" fill="url(#grad)"/><rect x="237" y="100" width="6" height="10" fill="url(#grad)"/><rect x="227" y="100" width="6" height="10" fill="url(#grad)"/><rect x="240" y="100" width="10" height="10" rx="3" ry="3" fill="url(#grad)"/><rect x="237" y="100" width="6" height="10" fill="url(#grad)"/><rect x="240" y="97" width="10" height="6" fill="url(#grad)"/><rect x="120" y="110" width="10" height="10" rx="3" ry="3" fill="url(#grad)"/><rect x="127" y="110" width="6" height="10" fill="url(#grad)"/><rect x="120" y="117" width="10" height="6" fill="url(#grad)"/><rect x="120" y="107" width="10" height="6" fill="url(#grad)"/><rect x="130" y="110" width="10" height="10" rx="3" ry="3" fill="url(#grad)"/><rect x="137" y="110" width="6" height="10" fill="url(#grad)"/><rect x="127" y="110" width="6" height="10" fill="url(#grad)"/><rect x="140" y="110" width="10" height="10" rx="3" ry="3" fill="url(#grad)"/><rect x="137" y="110" width="6" height="10" fill="url(#grad)"/><rect x="140" y="107" width="10" height="6" fill="url(#grad)"/><rect x="160" y="110" width="10" height="10" rx="3" ry="3" fill="url(#grad)"/><rect x="160" y="117" width="10" height="6" fill="url(#grad)"/><rect x="160" y="107" width="10" height="6" fill="url(#grad)"/><rect x="60" y="120" width="10" height="10" rx="3" ry="3" fill="url(#grad)"/><rect x="67" y="120" width="6" height="10" fill="url(#grad)"/><rect x="70" y="120" width="10" height="10" rx="3" ry="3" fill="url(#grad)"/><rect x="77" y="120" width="6" height="10" fill="url(#grad)"/><rect x="70" y="127" width="10" height="6" fill="url(#grad)"/><rect x="67" y="120" width="6" height="10" fill="url(#grad)"/><rect x="80" y="120" width="10" height="10" rx="3" ry="3" fill="url(#grad)"/><rect x="80" y="127" width="10" height="6" fill="url(#grad)"/><rect x="77" y="120" width="6" height="10" fill="url(#grad)"/><rect x="100" y="120" width="10" height="10" rx="3" ry="3" fill="url(#grad)"/><rect x="120" y="120" width="10" height="10" rx="3" ry="3" fill="url(#grad)"/><rect x="120" y="127" width="10" height="6" fill="url(#grad)"/><rect x="120" y="117" width="10" height="6" fill="url(#grad)"/><rect x="150" y="120" width="10" height="10" rx="3" ry="3" fill="url(#grad)"/><rect x="157" y="120" width="6" height="10" fill="url(#grad)"/><rect x="160" y="120" width="10" height="10" rx="3" ry="3" fill="url(#grad)"/><rect x="167" y="120" width="6" height="10" fill="url(#grad)"/><rect x="157" y="120" width="6" height="10" fill="url(#grad)"/><rect x="160" y="117" width="10" height="6" fill="url(#grad)"/><rect x="170" y="120" width="10" height="10" rx="3" ry="3" fill="url(#grad)"/><rect x="177" y="120" width="6" height="10" fill="url(#grad)"/><rect x="170" y="127" width="10" height="6" fill="url(#grad)"/><rect x="167" y="120" width="6" height="10" fill="url(#grad)"/><rect x="180" y="120" width="10" height="10" rx="3" ry="3" fill="url(#grad)"/><rect x="187" y="120" width="6" height="10" fill="url(#grad)"/><rect x="177" y="120" width="6" height="10" fill="url(#grad)"/><rect x="190" y="120" width="10" height="10" rx="3" ry="3" fill="url(#grad)"/><rect x="187" y="120" width="6" height="10" fill="url(#grad)"/><rect x="220" y="120" width="10" height="10" rx="3" ry="3" fill="url(#grad)"/><rect x="227" y="120" width="6" height="10" fill="url(#grad)"/><rect x="220" y="127" width="10" height="6" fill="url(#grad)"/><rect x="230" y="120" width="10" height="10" rx="3" ry="3" fill="url(#grad)"/><rect x="237" y="120" width="6" height="10" fill="url(#grad)"/><rect x="227" y="120" width="6" height="10" fill="url(#grad)"/><rect x="240" y="120" width="10" height="10" rx="3" ry="3" fill="url(#grad)"/><rect x="240" y="127" width="10" height="6" fill="url(#grad)"/><rect x="237" y="120" width="6" height="10" fill="url(#grad)"/><rect x="40" y="130" width="10" height="10" rx="3" ry="3" fill="url(#grad)"/><rect x="47" y="130" width="6" height="10" fill="url(#grad)"/><rect x="50" y="130" width="10" height="10" rx="3" ry="3" fill="url(#grad)"/><rect x="50" y="137" width="10" height="6" fill="url(#grad)"/><rect x="47" y="130" width="6" height="10" fill="url(#grad)"/><rect x="70" y="130" width="10" height="10" rx="3" ry="3" fill="url(#grad)"/><rect x="77" y="130" width="6" height="10" fill="url(#grad)"/><rect x="70" y="137" width="10" height="6" fill="url(#grad)"/><rect x="70" y="127" width="10" height="6" fill="url(#grad)"/><rect x="80" y="130" width="10" height="10" rx="3" ry="3" fill="url(#grad)"/><rect x="87" y="130" width="6" height="10" fill="url(#grad)"/><rect x="80" y="137" width="10" height="6" fill="url(#grad)"/><rect x="77" y="130" width="6" height="10" fill="url(#grad)"/><rect x="80" y="127" width="10" height="6" fill="url(#grad)"/><rect x="90" y="130" width="10" height="10" rx="3" ry="3" fill="url(#grad)"/><rect x="87" y="130" width="6" height="10" fill="url(#grad)"/><rect x="110" y="130" width="10" height="10" rx="3" ry="3" fill="url(#grad)"/><rect x="117" y="130" width="6" height="10" fill="url(#grad)"/><rect x="110" y="137" width="10" height="6" fill="url(#grad)"/><rect x="120" y="130" width="10" height="10" rx="3" ry="3" fill="url(#grad)"/><rect x="127" y="130" width="6" height="10" fill="url(#grad)"/><rect x="117" y="130" width="6" height="10" fill="url(#grad)"/><rect x="120" y="127" width="10" height="6" fill="url(#grad)"/><rect x="130" y="130" width="10" height="10" rx="3" ry="3" fill="url(#grad)"/><rect x="127" y="130" width="6" height="10" fill="url(#grad)"/><rect x="170" y="130" width="10" height="10" rx="3" ry="3" fill="url(#grad)"/><rect x="170" y="127" width="10" height="6" fill="url(#grad)"/><rect x="210" y="130" width="10" height="10" rx="3" ry="3" fill="url(#grad)"/><rect x="217" y="130" width="6" height="10" fill="url(#grad)"/><rect x="210" y="137" width="10" height="6" fill="url(#grad)"/><rect x="220" y="130" width="10" height="10" rx="3" ry="3" fill="url(#grad)"/><rect x="220" y="137" width="10" height="6" fill="url(#grad)"/><rect x="217" y="130" width="6" height="10" fill="url(#grad)"/><rect x="220" y="127" width="10" height="6" fill="url(#grad)"/><rect x="240" y="130" width="10" height="10" rx="3" ry="3" fill="url(#grad)"/><rect x="240" y="127" width="10" height="6" fill="url(#grad)"/><rect x="50" y="140" width="10" height="10" rx="3" ry="3" fill="url(#grad)"/><rect x="57" y="140" width="6" height="10" fill="url(#grad)"/><rect x="50" y="147" width="10" height="6" fill="url(#grad)"/><rect x="50" y="137" width="10" height="6" fill="url(#grad)"/><rect x="60" y="140" width="10" height="10" rx="3" ry="3" fill="url(#grad)"/><rect x="67" y="140" width="6" height="10" fill="url(#grad)"/><rect x="57" y="140" width="6" height="10" fill="url(#grad)"/><rect x="70" y="140" width="10" height="10" rx="3" ry="3" fill="url(#grad)"/><rect x="77" y="140" width="6" height="10" fill="url(#grad)"/><rect x="67" y="140" width="6" height="10" fill="url(#grad)"/><rect x="70" y="137" width="10" height="6" fill="url(#grad)"/><rect x="80" y="140" width="10" height="10" rx="3" ry="3" fill="url(#grad)"/><rect x="80" y="147" width="10" height="6" fill="url(#grad)"/><rect x="77" y="140" width="6" height="10" fill="url(#grad)"/><rect x="80" y="137" width="10" height="6" fill="url(#grad)"/><rect x="100" y="140" width="10" height="10" rx="3" ry="3" fill="url(#grad)"/><rect x="107" y="140" width="6" height="10" fill="url(#grad)"/><rect x="110" y="140" width="10" height="10" rx="3" ry="3" fill="url(#grad)"/><rect x="110" y="147" width="10" height="6" fill="url(#grad)"/><rect x="107" y="140" width="6" height="10" fill="url(#grad)"/><rect x="110" y="137" width="10" height="6" fill="url(#grad)"/><rect x="140" y="140" width="10" height="10" rx="3" ry="3" fill="url(#grad)"/><rect x="140" y="147" width="10" height="6" fill="url(#grad)"/><rect x="160" y="140" width="10" height="10" rx="3" ry="3" fill="url(#grad)"/><rect x="180" y="140" width="10" height="10" rx="3" ry="3" fill="url(#grad)"/><rect x="187" y="140" width="6" height="10" fill="url(#grad)"/><rect x="180" y="147" width="10" height="6" fill="url(#grad)"/><rect x="190" y="140" width="10" height="10" rx="3" ry="3" fill="url(#grad)"/><rect x="187" y="140" width="6" height="10" fill="url(#grad)"/><rect x="210" y="140" width="10" height="10" rx="3" ry="3" fill="url(#grad)"/><rect x="217" y="140" width="6" height="10" fill="url(#grad)"/><rect x="210" y="147" width="10" height="6" fill="url(#grad)"/><rect x="210" y="137" width="10" height="6" fill="url(#grad)"/><rect x="220" y="140" width="10" height="10" rx="3" ry="3" fill="url(#grad)"/><rect x="227" y="140" width="6" height="10" fill="url(#grad)"/><rect x="220" y="147" width="10" height="6" fill="url(#grad)"/><rect x="217" y="140" width="6" height="10" fill="url(#grad)"/><rect x="220" y="137" width="10" height="6" fill="url(#grad)"/><rect x="230" y="140" width="10" height="10" rx="3" ry="3" fill="url(#grad)"/><rect x="227" y="140" width="6" height="10" fill="url(#grad)"/><rect x="50" y="150" width="10" height="10" rx="3" ry="3" fill="url(#grad)"/><rect x="50" y="157" width="10" height="6" fill="url(#grad)"/><rect x="50" y="147" width="10" height="6" fill="url(#grad)"/><rect x="80" y="150" width="10" height="10" rx="3" ry="3" fill="url(#grad)"/><rect x="80" y="157" width="10" height="6" fill="url(#grad)"/><rect x="80" y="147" width="10" height="6" fill="url(#grad)"/><rect x="110" y="150" width="10" height="10" rx="3" ry="3" fill="url(#grad)"/><rect x="117" y="150" width="6" height="10" fill="url(#grad)"/><rect x="110" y="147" width="10" height="6" fill="url(#grad)"/><rect x="120" y="150" width="10" height="10" rx="3" ry="3" fill="url(#grad)"/><rect x="127" y="150" width="6" height="10" fill="url(#grad)"/><rect x="117" y="150" width="6" height="10" fill="url(#grad)"/><rect x="130" y="150" width="10" height="10" rx="3" ry="3" fill="url(#grad)"/><rect x="137" y="150" width="6" height="10" fill="url(#grad)"/><rect x="127" y="150" width="6" height="10" fill="url(#grad)"/><rect x="140" y="150" width="10" height="10" rx="3" ry="3" fill="url(#grad)"/><rect x="147" y="150" width="6" height="10" fill="url(#grad)"/><rect x="140" y="157" width="10" height="6" fill="url(#grad)"/><rect x="137" y="150" width="6" height="10" fill="url(#grad)"/><rect x="140" y="147" width="10" height="6" fill="url(#grad)"/><rect x="150" y="150" width="10" height="10" rx="3" ry="3" fill="url(#grad)"/><rect x="150" y="157" width="10" height="6" fill="url(#grad)"/><rect x="147" y="150" width="6" height="10" fill="url(#grad)"/><rect x="180" y="150" width="10" height="10" rx="3" ry="3" fill="url(#grad)"/><rect x="180" y="147" width="10" height="6" fill="url(#grad)"/><rect x="210" y="150" width="10" height="10" rx="3" ry="3" fill="url(#grad)"/><rect x="217" y="150" width="6" height="10" fill="url(#grad)"/><rect x="210" y="157" width="10" height="6" fill="url(#grad)"/><rect x="210" y="147" width="10" height="6" fill="url(#grad)"/><rect x="220" y="150" width="10" height="10" rx="3" ry="3" fill="url(#grad)"/><rect x="217" y="150" width="6" height="10" fill="url(#grad)"/><rect x="220" y="147" width="10" height="6" fill="url(#grad)"/><rect x="40" y="160" width="10" height="10" rx="3" ry="3" fill="url(#grad)"/><rect x="47" y="160" width="6" height="10" fill="url(#grad)"/><rect x="50" y="160" width="10" height="10" rx="3" ry="3" fill="url(#grad)"/><rect x="47" y="160" width="6" height="10" fill="url(#grad)"/><rect x="50" y="157" width="10" height="6" fill="url(#grad)"/><rect x="80" y="160" width="10" height="10" rx="3" ry="3" fill="url(#grad)"/><rect x="80" y="157" width="10" height="6" fill="url(#grad)"/><rect x="100" y="160" width="10" height="10" rx="3" ry="3" fill="url(#grad)"/><rect x="140" y="160" width="10" height="10" rx="3" ry="3" fill="url(#grad)"/><rect x="147" y="160" width="6" height="10" fill="url(#grad)"/><rect x="140" y="167" width="10" height="6" fill="url(#grad)"/><rect x="140" y="157" width="10" height="6" fill="url(#grad)"/><rect x="150" y="160" width="10" height="10" rx="3" ry="3" fill="url(#grad)"/><rect x="147" y="160" width="6" height="10" fill="url(#grad)"/><rect x="150" y="157" width="10" height="6" fill="url(#grad)"/><rect x="190" y="160" width="10" height="10" rx="3" ry="3" fill="url(#grad)"/><rect x="190" y="167" width="10" height="6" fill="url(#grad)"/><rect x="210" y="160" width="10" height="10" rx="3" ry="3" fill="url(#grad)"/><rect x="210" y="157" width="10" height="6" fill="url(#grad)"/><rect x="230" y="160" width="10" height="10" rx="3" ry="3" fill="url(#grad)"/><rect x="230" y="167" width="10" height="6" fill="url(#grad)"/><rect x="120" y="170" width="10" height="10" rx="3" ry="3" fill="url(#grad)"/><rect x="127" y="170" width="6" height="10" fill="url(#grad)"/><rect x="130" y="170" width="10" height="10" rx="3" ry="3" fill="url(#grad)"/><rect x="137" y="170" width="6" height="10" fill="url(#grad)"/><rect x="130" y="177" width="10" height="6" fill="url(#grad)"/><rect x="127" y="170" width="6" height="10" fill="url(#grad)"/><rect x="140" y="170" width="10" height="10" rx="3" ry="3" fill="url(#grad)"/><rect x="137" y="170" width="6" height="10" fill="url(#grad)"/><rect x="140" y="167" width="10" height="6" fill="url(#grad)"/><rect x="180" y="170" width="10" height="10" rx="3" ry="3" fill="url(#grad)"/><rect x="187" y="170" width="6" height="10" fill="url(#grad)"/><rect x="190" y="170" width="10" height="10" rx="3" ry="3" fill="url(#grad)"/><rect x="187" y="170" width="6" height="10" fill="url(#grad)"/><rect x="190" y="167" width="10" height="6" fill="url(#grad)"/><rect x="220" y="170" width="10" height="10" rx="3" ry="3" fill="url(#grad)"/><rect x="227" y="170" width="6" height="10" fill="url(#grad)"/><rect x="230" y="170" width="10" height="10" rx="3" ry="3" fill="url(#grad)"/><rect x="237" y="170" width="6" height="10" fill="url(#grad)"/><rect x="230" y="177" width="10" height="6" fill="url(#grad)"/><rect x="227" y="170" width="6" height="10" fill="url(#grad)"/><rect x="230" y="167" width="10" height="6" fill="url(#grad)"/><rect x="240" y="170" width="10" height="10" rx="3" ry="3" fill="url(#grad)"/><rect x="237" y="170" width="6" height="10" fill="url(#grad)"/><rect x="40" y="180" width="10" height="10" rx="3" ry="3" fill="url(#grad)"/><rect x="47" y="180" width="6" height="10" fill="url(#grad)"/><rect x="40" y="187" width="10" height="6" fill="url(#grad)"/><rect x="50" y="180" width="10" height="10" rx="3" ry="3" fill="url(#grad)"/><rect x="57" y="180" width="6" height="10" fill="url(#grad)"/><rect x="47" y="180" width="6" height="10" fill="url(#grad)"/><rect x="60" y="180" width="10" height="10" rx="3" ry="3" fill="url(#grad)"/><rect x="67" y="180" width="6" height="10" fill="url(#grad)"/><rect x="57" y="180" width="6" height="10" fill="url(#grad)"/><rect x="70" y="180" width="10" height="10" rx="3" ry="3" fill="url(#grad)"/><rect x="77" y="180" width="6" height="10" fill="url(#grad)"/><rect x="67" y="180" width="6" height="10" fill="url(#grad)"/><rect x="80" y="180" width="10" height="10" rx="3" ry="3" fill="url(#grad)"/><rect x="87" y="180" width="6" height="10" fill="url(#grad)"/><rect x="77" y="180" width="6" height="10" fill="url(#grad)"/><rect x="90" y="180" width="10" height="10" rx="3" ry="3" fill="url(#grad)"/><rect x="97" y="180" width="6" height="10" fill="url(#grad)"/><rect x="87" y="180" width="6" height="10" fill="url(#grad)"/><rect x="100" y="180" width="10" height="10" rx="3" ry="3" fill="url(#grad)"/><rect x="100" y="187" width="10" height="6" fill="url(#grad)"/><rect x="97" y="180" width="6" height="10" fill="url(#grad)"/><rect x="130" y="180" width="10" height="10" rx="3" ry="3" fill="url(#grad)"/><rect x="130" y="187" width="10" height="6" fill="url(#grad)"/><rect x="130" y="177" width="10" height="6" fill="url(#grad)"/><rect x="150" y="180" width="10" height="10" rx="3" ry="3" fill="url(#grad)"/><rect x="157" y="180" width="6" height="10" fill="url(#grad)"/><rect x="160" y="180" width="10" height="10" rx="3" ry="3" fill="url(#grad)"/><rect x="160" y="187" width="10" height="6" fill="url(#grad)"/><rect x="157" y="180" width="6" height="10" fill="url(#grad)"/><rect x="200" y="180" width="10" height="10" rx="3" ry="3" fill="url(#grad)"/><rect x="207" y="180" width="6" height="10" fill="url(#grad)"/><rect x="200" y="187" width="10" height="6" fill="url(#grad)"/><rect x="210" y="180" width="10" height="10" rx="3" ry="3" fill="url(#grad)"/><rect x="210" y="187" width="10" height="6" fill="url(#grad)"/><rect x="207" y="180" width="6" height="10" fill="url(#grad)"/><rect x="230" y="180" width="10" height="10" rx="3" ry="3" fill="url(#grad)"/><rect x="230" y="177" width="10" height="6" fill="url(#grad)"/><rect x="40" y="190" width="10" height="10" rx="3" ry="3" fill="url(#grad)"/><rect x="40" y="197" width="10" height="6" fill="url(#grad)"/><rect x="40" y="187" width="10" height="6" fill="url(#grad)"/><rect x="100" y="190" width="10" height="10" rx="3" ry="3" fill="url(#grad)"/><rect x="100" y="197" width="10" height="6" fill="url(#grad)"/><rect x="100" y="187" width="10" height="6" fill="url(#grad)"/><rect x="130" y="190" width="10" height="10" rx="3" ry="3" fill="url(#grad)"/><rect x="137" y="190" width="6" height="10" fill="url(#grad)"/><rect x="130" y="187" width="10" height="6" fill="url(#grad)"/><rect x="140" y="190" width="10" height="10" rx="3" ry="3" fill="url(#grad)"/><rect x="140" y="197" width="10" height="6" fill="url(#grad)"/><rect x="137" y="190" width="6" height="10" fill="url(#grad)"/><rect x="160" y="190" width="10" height="10" rx="3" ry="3" fill="url(#grad)"/><rect x="160" y="197" width="10" height="6" fill="url(#grad)"/><rect x="160" y="187" width="10" height="6" fill="url(#grad)"/><rect x="180" y="190" width="10" height="10" rx="3" ry="3" fill="url(#grad)"/><rect x="187" y="190" width="6" height="10" fill="url(#grad)"/><rect x="190" y="190" width="10" height="10" rx="3" ry="3" fill="url(#grad)"/><rect x="197" y="190" width="6" height="10" fill="url(#grad)"/><rect x="187" y="190" width="6" height="10" fill="url(#grad)"/><rect x="200" y="190" width="10" height="10" rx="3" ry="3" fill="url(#grad)"/><rect x="207" y="190" width="6" height="10" fill="url(#grad)"/><rect x="200" y="197" width="10" height="6" fill="url(#grad)"/><rect x="197" y="190" width="6" height="10" fill="url(#grad)"/><rect x="200" y="187" width="10" height="6" fill="url(#grad)"/><rect x="210" y="190" width="10" height="10" rx="3" ry="3" fill="url(#grad)"/><rect x="217" y="190" width="6" height="10" fill="url(#grad)"/><rect x="210" y="197" width="10" height="6" fill="url(#grad)"/><rect x="207" y="190" width="6" height="10" fill="url(#grad)"/><rect x="210" y="187" width="10" height="6" fill="url(#grad)"/><rect x="220" y="190" width="10" height="10" rx="3" ry="3" fill="url(#grad)"/><rect x="217" y="190" width="6" height="10" fill="url(#grad)"/><rect x="40" y="200" width="10" height="10" rx="3" ry="3" fill="url(#grad)"/><rect x="40" y="207" width="10" height="6" fill="url(#grad)"/><rect x="40" y="197" width="10" height="6" fill="url(#grad)"/><rect x="60" y="200" width="10" height="10" rx="3" ry="3" fill="url(#grad)"/><rect x="67" y="200" width="6" height="10" fill="url(#grad)"/><rect x="60" y="207" width="10" height="6" fill="url(#grad)"/><rect x="70" y="200" width="10" height="10" rx="3" ry="3" fill="url(#grad)"/><rect x="77" y="200" width="6" height="10" fill="url(#grad)"/><rect x="70" y="207" width="10" height="6" fill="url(#grad)"/><rect x="67" y="200" width="6" height="10" fill="url(#grad)"/><rect x="80" y="200" width="10" height="10" rx="3" ry="3" fill="url(#grad)"/><rect x="80" y="207" width="10" height="6" fill="url(#grad)"/><rect x="77" y="200" width="6" height="10" fill="url(#grad)"/><rect x="100" y="200" width="10" height="10" rx="3" ry="3" fill="url(#grad)"/><rect x="100" y="207" width="10" height="6" fill="url(#grad)"/><rect x="100" y="197" width="10" height="6" fill="url(#grad)"/><rect x="120" y="200" width="10" height="10" rx="3" ry="3" fill="url(#grad)"/><rect x="120" y="207" width="10" height="6" fill="url(#grad)"/><rect x="140" y="200" width="10" height="10" rx="3" ry="3" fill="url(#grad)"/><rect x="147" y="200" width="6" height="10" fill="url(#grad)"/><rect x="140" y="207" width="10" height="6" fill="url(#grad)"/><rect x="140" y="197" width="10" height="6" fill="url(#grad)"/><rect x="150" y="200" width="10" height="10" rx="3" ry="3" fill="url(#grad)"/><rect x="157" y="200" width="6" height="10" fill="url(#grad)"/><rect x="150" y="207" width="10" height="6" fill="url(#grad)"/><rect x="147" y="200" width="6" height="10" fill="url(#grad)"/><rect x="160" y="200" width="10" height="10" rx="3" ry="3" fill="url(#grad)"/><rect x="160" y="207" width="10" height="6" fill="url(#grad)"/><rect x="157" y="200" width="6" height="10" fill="url(#grad)"/><rect x="160" y="197" width="10" height="6" fill="url(#grad)"/><rect x="200" y="200" width="10" height="10" rx="3" ry="3" fill="url(#grad)"/><rect x="207" y="200" width="6" height="10" fill="url(#grad)"/><rect x="200" y="197" width="10" height="6" fill="url(#grad)"/><rect x="210" y="200" width="10" height="10" rx="3" ry="3" fill="url(#grad)"/><rect x="210" y="207" width="10" height="6" fill="url(#grad)"/><rect x="207" y="200" width="6" height="10" fill="url(#grad)"/><rect x="210" y="197" width="10" height="6" fill="url(#grad)"/><rect x="230" y="200" width="10" height="10" rx="3" ry="3" fill="url(#grad)"/><rect x="40" y="210" width="10" height="10" rx="3" ry="3" fill="url(#grad)"/><rect x="40" y="217" width="10" height="6" fill="url(#grad)"/><rect x="40" y="207" width="10" height="6" fill="url(#grad)"/><rect x="60" y="210" width="10" height="10" rx="3" ry="3" fill="url(#grad)"/><rect x="67" y="210" width="6" height="10" fill="url(#grad)"/><rect x="60" y="217" width="10" height="6" fill="url(#grad)"/><rect x="60" y="207" width="10" height="6" fill="url(#grad)"/><rect x="70" y="210" width="10" height="10" rx="3" ry="3" fill="url(#grad)"/><rect x="77" y="210" width="6" height="10" fill="url(#grad)"/><rect x="70" y="217" width="10" height="6" fill="url(#grad)"/><rect x="67" y="210" width="6" height="10" fill="url(#grad)"/><rect x="70" y="207" width="10" height="6" fill="url(#grad)"/><rect x="80" y="210" width="10" height="10" rx="3" ry="3" fill="url(#grad)"/><rect x="80" y="217" width="10" height="6" fill="url(#grad)"/><rect x="77" y="210" width="6" height="10" fill="url(#grad)"/><rect x="80" y="207" width="10" height="6" fill="url(#grad)"/><rect x="100" y="210" width="10" height="10" rx="3" ry="3" fill="url(#grad)"/><rect x="100" y="217" width="10" height="6" fill="url(#grad)"/><rect x="100" y="207" width="10" height="6" fill="url(#grad)"/><rect x="120" y="210" width="10" height="10" rx="3" ry="3" fill="url(#grad)"/><rect x="127" y="210" width="6" height="10" fill="url(#grad)"/><rect x="120" y="217" width="10" height="6" fill="url(#grad)"/><rect x="120" y="207" width="10" height="6" fill="url(#grad)"/><rect x="130" y="210" width="10" height="10" rx="3" ry="3" fill="url(#grad)"/><rect x="137" y="210" width="6" height="10" fill="url(#grad)"/><rect x="127" y="210" width="6" height="10" fill="url(#grad)"/><rect x="140" y="210" width="10" height="10" rx="3" ry="3" fill="url(#grad)"/><rect x="147" y="210" width="6" height="10" fill="url(#grad)"/><rect x="140" y="217" width="10" height="6" fill="url(#grad)"/><rect x="137" y="210" width="6" height="10" fill="url(#grad)"/><rect x="140" y="207" width="10" height="6" fill="url(#grad)"/><rect x="150" y="210" width="10" height="10" rx="3" ry="3" fill="url(#grad)"/><rect x="157" y="210" width="6" height="10" fill="url(#grad)"/><rect x="150" y="217" width="10" height="6" fill="url(#grad)"/><rect x="147" y="210" width="6" height="10" fill="url(#grad)"/><rect x="150" y="207" width="10" height="6" fill="url(#grad)"/><rect x="160" y="210" width="10" height="10" rx="3" ry="3" fill="url(#grad)"/><rect x="167" y="210" width="6" height="10" fill="url(#grad)"/><rect x="160" y="217" width="10" height="6" fill="url(#grad)"/><rect x="157" y="210" width="6" height="10" fill="url(#grad)"/><rect x="160" y="207" width="10" height="6" fill="url(#grad)"/><rect x="170" y="210" width="10" height="10" rx="3" ry="3" fill="url(#grad)"/><rect x="177" y="210" width="6" height="10" fill="url(#grad)"/><rect x="167" y="210" width="6" height="10" fill="url(#grad)"/><rect x="180" y="210" width="10" height="10" rx="3" ry="3" fill="url(#grad)"/><rect x="187" y="210" width="6" height="10" fill="url(#grad)"/><rect x="180" y="217" width="10" height="6" fill="url(#grad)"/><rect x="177" y="210" width="6" height="10" fill="url(#grad)"/><rect x="190" y="210" width="10" height="10" rx="3" ry="3" fill="url(#grad)"/><rect x="190" y="217" width="10" height="6" fill="url(#grad)"/><rect x="187" y="210" width="6" height="10" fill="url(#grad)"/><rect x="210" y="210" width="10" height="10" rx="3" ry="3" fill="url(#grad)"/><rect x="217" y="210" width="6" height="10" fill="url(#grad)"/><rect x="210" y="207" width="10" height="6" fill="url(#grad)"/><rect x="220" y="210" width="10" height="10" rx="3" ry="3" fill="url(#grad)"/><rect x="220" y="217" width="10" height="6" fill="url(#grad)"/><rect x="217" y="210" width="6" height="10" fill="url(#grad)"/><rect x="40" y="220" width="10" height="10" rx="3" ry="3" fill="url(#grad)"/><rect x="40" y="227" width="10" height="6" fill="url(#grad)"/><rect x="40" y="217" width="10" height="6" fill="url(#grad)"/><rect x="60" y="220" width="10" height="10" rx="3" ry="3" fill="url(#grad)"/><rect x="67" y="220" width="6" height="10" fill="url(#grad)"/><rect x="60" y="217" width="10" height="6" fill="url(#grad)"/><rect x="70" y="220" width="10" height="10" rx="3" ry="3" fill="url(#grad)"/><rect x="77" y="220" width="6" height="10" fill="url(#grad)"/><rect x="67" y="220" width="6" height="10" fill="url(#grad)"/><rect x="70" y="217" width="10" height="6" fill="url(#grad)"/><rect x="80" y="220" width="10" height="10" rx="3" ry="3" fill="url(#grad)"/><rect x="77" y="220" width="6" height="10" fill="url(#grad)"/><rect x="80" y="217" width="10" height="6" fill="url(#grad)"/><rect x="100" y="220" width="10" height="10" rx="3" ry="3" fill="url(#grad)"/><rect x="100" y="227" width="10" height="6" fill="url(#grad)"/><rect x="100" y="217" width="10" height="6" fill="url(#grad)"/><rect x="120" y="220" width="10" height="10" rx="3" ry="3" fill="url(#grad)"/><rect x="120" y="217" width="10" height="6" fill="url(#grad)"/><rect x="140" y="220" width="10" height="10" rx="3" ry="3" fill="url(#grad)"/><rect x="147" y="220" width="6" height="10" fill="url(#grad)"/><rect x="140" y="217" width="10" height="6" fill="url(#grad)"/><rect x="150" y="220" width="10" height="10" rx="3" ry="3" fill="url(#grad)"/><rect x="157" y="220" width="6" height="10" fill="url(#grad)"/><rect x="147" y="220" width="6" height="10" fill="url(#grad)"/><rect x="150" y="217" width="10" height="6" fill="url(#grad)"/><rect x="160" y="220" width="10" height="10" rx="3" ry="3" fill="url(#grad)"/><rect x="160" y="227" width="10" height="6" fill="url(#grad)"/><rect x="157" y="220" width="6" height="10" fill="url(#grad)"/><rect x="160" y="217" width="10" height="6" fill="url(#grad)"/><rect x="180" y="220" width="10" height="10" rx="3" ry="3" fill="url(#grad)"/><rect x="187" y="220" width="6" height="10" fill="url(#grad)"/><rect x="180" y="217" width="10" height="6" fill="url(#grad)"/><rect x="190" y="220" width="10" height="10" rx="3" ry="3" fill="url(#grad)"/><rect x="190" y="227" width="10" height="6" fill="url(#grad)"/><rect x="187" y="220" width="6" height="10" fill="url(#grad)"/><rect x="190" y="217" width="10" height="6" fill="url(#grad)"/><rect x="220" y="220" width="10" height="10" rx="3" ry="3" fill="url(#grad)"/><rect x="220" y="227" width="10" height="6" fill="url(#grad)"/><rect x="220" y="217" width="10" height="6" fill="url(#grad)"/><rect x="40" y="230" width="10" height="10" rx="3" ry="3" fill="url(#grad)"/><rect x="40" y="237" width="10" height="6" fill="url(#grad)"/><rect x="40" y="227" width="10" height="6" fill="url(#grad)"/><rect x="100" y="230" width="10" height="10" rx="3" ry="3" fill="url(#grad)"/><rect x="100" y="237" width="10" height="6" fill="url(#grad)"/><rect x="100" y="227" width="10" height="6" fill="url(#grad)"/><rect x="160" y="230" width="10" height="10" rx="3" ry="3" fill="url(#grad)"/><rect x="160" y="237" width="10" height="6" fill="url(#grad)"/><rect x="160" y="227" width="10" height="6" fill="url(#grad)"/><rect x="190" y="230" width="10" height="10" rx="3" ry="3" fill="url(#grad)"/><rect x="190" y="237" width="10" height="6" fill="url(#grad)"/><rect x="190" y="227" width="10" height="6" fill="url(#grad)"/><rect x="220" y="230" width="10" height="10" rx="3" ry="3" fill="url(#grad)"/><rect x="220" y="237" width="10" height="6" fill="url(#grad)"/><rect x="220" y="227" width="10" height="6" fill="url(#grad)"/><rect x="40" y="240" width="10" height="10" rx="3" ry="3" fill="url(#grad)"/><rect x="47" y="240" width="6" height="10" fill="url(#grad)"/><rect x="40" y="237" width="10" height="6" fill="url(#grad)"/><rect x="50" y="240" width="10" height="10" rx="3" ry="3" fill="url(#grad)"/><rect x="57" y="240" width="6" height="10" fill="url(#grad)"/><rect x="47" y="240" width="6" height="10" fill="url(#grad)"/><rect x="60" y="240" width="10" height="10" rx="3" ry="3" fill="url(#grad)"/><rect x="67" y="240" width="6" height="10" fill="url(#grad)"/><rect x="57" y="240" width="6" height="10" fill="url(#grad)"/><rect x="70" y="240" width="10" height="10" rx="3" ry="3" fill="url(#grad)"/><rect x="77" y="240" width="6" height="10" fill="url(#grad)"/><rect x="67" y="240" width="6" height="10" fill="url(#grad)"/><rect x="80" y="240" width="10" height="10" rx="3" ry="3" fill="url(#grad)"/><rect x="87" y="240" width="6" height="10" fill="url(#grad)"/><rect x="77" y="240" width="6" height="10" fill="url(#grad)"/><rect x="90" y="240" width="10" height="10" rx="3" ry="3" fill="url(#grad)"/><rect x="97" y="240" width="6" height="10" fill="url(#grad)"/><rect x="87" y="240" width="6" height="10" fill="url(#grad)"/><rect x="100" y="240" width="10" height="10" rx="3" ry="3" fill="url(#grad)"/><rect x="97" y="240" width="6" height="10" fill="url(#grad)"/><rect x="100" y="237" width="10" height="6" fill="url(#grad)"/><rect x="130" y="240" width="10" height="10" rx="3" ry="3" fill="url(#grad)"/><rect x="160" y="240" width="10" height="10" rx="3" ry="3" fill="url(#grad)"/><rect x="167" y="240" width="6" height="10" fill="url(#grad)"/><rect x="160" y="237" width="10" height="6" fill="url(#grad)"/><rect x="170" y="240" width="10" height="10" rx="3" ry="3" fill="url(#grad)"/><rect x="167" y="240" width="6" height="10" fill="url(#grad)"/><rect x="190" y="240" width="10" height="10" rx="3" ry="3" fill="url(#grad)"/><rect x="190" y="237" width="10" height="6" fill="url(#grad)"/><rect x="220" y="240" width="10" height="10" rx="3" ry="3" fill="url(#grad)"/><rect x="227" y="240" width="6" height="10" fill="url(#grad)"/><rect x="220" y="237" width="10" height="6" fill="url(#grad)"/><rect x="230" y="240" width="10" height="10" rx="3" ry="3" fill="url(#grad)"/><rect x="227" y="240" width="6" height="10" fill="url(#grad)"/></svg>